<svg xmlns="http://www.w3.org/2000/svg" viewBox="0 0 283.46 79.9"><defs><style>.prefix__cls-1{fill:#234f96}</style></defs><g id="prefix__Ebene_1"><path class="prefix__cls-1" d="M277.75 68.56v-4.4h5.71v-1.28h-7.18v13.09h1.47v-6.14h5.3v-1.28h-5.3zm-12.65 7.42h1.47V62.89h-1.47v13.09zm6.79-13.09l-5.3 6.22 5.59 6.87h2l-5.85-6.91 5.34-6.18h-1.79zm-15.69 6.47v-5.2h.77c1.79 0 2.32.06 2.96.31.84.33 1.33 1.2 1.33 2.33 0 1.26-.61 2.12-1.71 2.37-.61.14-1.08.18-2.43.18h-.92zm-1.47-6.47v13.09h1.47v-5.34h.96c1.98 0 2.79-.1 3.61-.43 1.28-.51 2.04-1.79 2.04-3.4 0-1.73-.88-3.1-2.32-3.57-.8-.27-1.67-.35-3.61-.35h-2.16zm-9.38 0v13.09h7.1V74.7h-5.59V62.88h-1.51zm-15.6 3.78l3.24 9.4c-.75 2.18-1.26 2.61-3.02 2.59v1.22c.18.02.35.02.43.02 1.12 0 2.02-.37 2.71-1.1.59-.65.77-1 1.63-3.47l3.06-8.66h-1.43l-2.61 7.75-2.53-7.75h-1.47zm-4.88.95c1.43 0 2.34 1.43 2.34 3.67s-.96 3.73-2.43 3.73-2.45-1.45-2.45-3.65 1-3.75 2.55-3.75m-3.92-4.79v10.52c0 1.61-.02 2.06-.16 2.63h1.31c.12-.39.16-.71.16-1.31.65 1.08 1.41 1.55 2.57 1.55 2.26 0 3.77-1.96 3.77-4.93s-1.47-4.87-3.61-4.87c-1.16 0-1.96.49-2.67 1.61v-5.2h-1.37zM158.64 15.08h-4.04v27.71h27.1v-4.06h-23.06V15.08zM248.48 19.15v-4.07H220.9v4.05h21.54L220.9 38.72v4.07h27.61v-4.06h-21.64l21.61-19.58zM255.76 15.08v27.71h27.7v-4.06h-23.71v-7.77h19.66v-4.05h-19.66v-7.78h23.71v-4.05h-27.7zM115.39 42.79l14.85-27.7h4.05l14.88 27.7h-4.61l-12.3-22.86-12.28 22.86h-4.59zM14.85 15.09L0 42.78h4.6l12.28-22.85 12.29 22.85h4.61L18.9 15.09h-4.05zM181.7 15.09l14.85 27.7v12.38h4.06V42.79l14.87-27.7h-4.61l-12.29 22.86-12.28-22.86h-4.6z"/><path d="M198.59 0s-5.52 10.77-5.66 14.09c-.14 3.31 2.9 5.8 5.66 5.8s5.66-1.8 5.66-5.94c0-3.04-5.66-13.95-5.66-13.95" fill="#96be3c"/><path class="prefix__cls-1" d="M109.95 35.05c0-1.6-.62-3.04-1.62-4.14 1-1.09 1.62-2.54 1.62-4.14v-5.55c0-3.4-2.27-6.16-5.67-6.16H78.21v27.71h4.05v-9.83h20.39c1.8 0 3.26 1.46 3.26 3.26v6.58h4.04v-7.73zm-4.05-9.37c0 1.8-1.46 3.26-3.26 3.26H82.25v-9.78h20.39c1.8 0 3.26 1.46 3.26 3.26v3.26zM70.95 35.05c0-1.6-.62-3.04-1.62-4.14 1-1.09 1.62-2.54 1.62-4.14v-5.55c0-3.4-2.27-6.16-5.67-6.16H39.21v27.71h4.05v-9.83h20.39c1.8 0 3.26 1.46 3.26 3.26v6.58h4.04v-7.73zm-4.05-9.37c0 1.8-1.46 3.26-3.26 3.26H43.25v-9.78h20.39c1.8 0 3.26 1.46 3.26 3.26v3.26z"/></g></svg>